/* XPM */
static char *_2c8a6af374f437e9917685d8dc7ad79sdRbD8IIZZucEwve[] = {
/* columns rows colors chars-per-pixel */
"16 16 16 1 ",
"  c magenta",
". c gray5",
"X c #252525",
"o c gray36",
"O c gray66",
"+ c #B2B2B2",
"@ c magenta",
"# c gray",
"$ c gainsboro",
"% c gray89",
"& c magenta",
"* c #EAEAEA",
"= c #EEEEEE",
"+ c #F6F6F6",
"; c magenta",
": c black",
/* pixels */
"::::::::::::::::",
"::::::::::::::::",
":::::::@@@::::::",
"::::::@@ @::::::",
":::::::@ @::::::",
":::::::@ @::::::",
":::::::@ @::::::",
":::::::@ @::::::",
":::::::@ @::::::",
":::::::@ @::::::",
":::::::@ @::::::",
":::::::@ @::::::",
":::::::@ @::::::",
":::::::@@@::::::",
"::::::::::::::::",
"::::::::::::::::"
};
