/* XPM */
static char *_593_ad84088dccbe3624394cd177aca2206ee12bdd142c39bcab803e702fcfff948a[] = {
/* columns rows colors chars-per-pixel */
"16 16 49 1 ",
"  c magenta",
". c magenta",
"X c magenta",
"o c magenta",
"O c magenta",
"+ c magenta",
"@ c magenta",
"# c magenta",
"$ c magenta",
"% c magenta",
"& c magenta",
"* c magenta",
"= c magenta",
"- c magenta",
"; c magenta",
": c magenta",
"> c magenta",
", c magenta",
"< c magenta",
"1 c magenta",
"2 c magenta",
"3 c magenta",
"4 c magenta",
"5 c magenta",
"6 c magenta",
"7 c magenta",
"8 c magenta",
"9 c magenta",
"0 c magenta",
"q c magenta",
"w c magenta",
"e c magenta",
"r c magenta",
"t c magenta",
"y c magenta",
"u c magenta",
"i c magenta",
"p c magenta",
"a c black",
"s c magenta",
"d c black",
"f c black",
"g c black",
"h c black",
"j c black",
"k c black",
"l c black",
"z c black",
"x c black",
/* pixels */
"xxxxzlkjzxxxxxxx",
"xxxxxxxxxkxxxxxx",
"xxxxxa05dxlxxxxx",
"xxlx:.&$#qxkxxxx",
"xxlx>4xx7 sxlxxx",
"xxxxxxhxt uxlxxx",
"xxxxzlkxe pxlxxx",
"xxxxxxgx;+xzxxxx",
"xxxxxgxr wxkxxxx",
"xxxxhxyoqxjxxxxx",
"xxxkxtX8xflzxxxx",
"xxlxiOexxxxxzxxx",
"xxkx% 2<1,@6xkxx",
"xxzx3:===-*9xkxx",
"xxxzxxxxxxxxzxxx",
"xxxxkjjjjjjlxxxx"
};
