/* XPM */
static char *_157_520a5ebac13d4535fad475bcc31fbfba885ebf02f00a0e513a2f929e1a2bb4f3[] = {
/* columns rows colors chars-per-pixel */
"16 16 44 1 ",
"  c magenta",
". c magenta",
"X c magenta",
"o c magenta",
"O c magenta",
"+ c magenta",
"@ c magenta",
"# c magenta",
"$ c magenta",
"% c magenta",
"& c magenta",
"* c magenta",
"= c magenta",
"- c magenta",
"; c magenta",
": c magenta",
"> c magenta",
", c magenta",
"< c magenta",
"1 c magenta",
"2 c magenta",
"3 c magenta",
"4 c magenta",
"5 c magenta",
"6 c magenta",
"7 c magenta",
"8 c magenta",
"9 c magenta",
"0 c magenta",
"q c black",
"w c magenta",
"e c magenta",
"r c magenta",
"t c black",
"y c magenta",
"u c black",
"i c black",
"p c black",
"a c black",
"s c black",
"d c black",
"f c black",
"g c black",
"h c black",
/* pixels */
"hhhhhgdghhhhhhhh",
"hhhhghhhdsghhhhh",
"hhhght6ihhhghhhh",
"hhhsh1 X#2phghhh",
"hhhghuiq4.=hshhh",
"hhhhghhhh*,hdhhh",
"hhhhhgah5:hdhhhh",
"hhhhhghworhghhhh",
"hhhhhdh3 ehdhhhh",
"hhhhhhfh7O9hfhhh",
"hhhhhhhph$@hdhhh",
"hhhhhgshh+;hshhh",
"hhhhghhh>&dhghhh",
"hhhfh0-%<hhfhhhh",
"hhhghy8rhhfhhhhh",
"hhhhghhhsghhhhhh"
};
