/* XPM */
static char *e453025ff8b245f5f7ae5b64c3f537cdqlTzo0FtpvCa6wI6[] = {
/* columns rows colors chars-per-pixel */
"16 16 34 1 ",
"  c magenta",
". c magenta",
"X c magenta",
"o c magenta",
"O c magenta",
"+ c magenta",
"@ c magenta",
"# c magenta",
"$ c magenta",
"% c magenta",
"& c magenta",
"* c magenta",
"= c magenta",
"- c magenta",
"; c magenta",
": c magenta",
"> c magenta",
", c magenta",
"< c magenta",
"1 c magenta",
"2 c magenta",
"3 c magenta",
"4 c magenta",
"5 c magenta",
"6 c black",
"7 c black",
"8 c black",
"9 c black",
"0 c black",
"q c black",
"w c black",
"e c black",
"r c black",
"t c black",
/* pixels */
"tttttttttrtttttt",
"tttttttttttttttt",
"tttttttt06tttttt",
"tttttrttX=trtttt",
"ttttttt- :trtttt",
"ttttrt<*#;trtttt",
"tttrt5&t$1trtttt",
"tttte%9t@1trtttt",
"ttrt>5tt#2tttttt",
"ttt3X879+2terttt",
"trt,.XX  o&#4trt",
"tttterw8O<tqtttt",
"tttttttt@1tttttt",
"ttttttrt=4trtttt",
"tttttttttttttttt",
"tttttttttttttttt"
};
