/* XPM */
static char *_4855b76a9f44ccb9198e00aa7526440rTkNhxJQD9uJEPrZ[] = {
/* columns rows colors chars-per-pixel */
"16 16 32 1 ",
"  c magenta",
". c magenta",
"X c magenta",
"o c magenta",
"O c magenta",
"+ c magenta",
"@ c magenta",
"# c magenta",
"$ c magenta",
"% c magenta",
"& c magenta",
"* c magenta",
"= c magenta",
"- c magenta",
"; c magenta",
": c magenta",
"> c magenta",
", c magenta",
"< c magenta",
"1 c magenta",
"2 c magenta",
"3 c magenta",
"4 c magenta",
"5 c magenta",
"6 c magenta",
"7 c black",
"8 c black",
"9 c black",
"0 c black",
"q c black",
"w c black",
"e c black",
/* pixels */
"eeeeeewwwwweeeee",
"eeeeeeeeeeeeeeee",
"eeeee71321<9eeee",
"eeewe= .X+&0eeee",
"eeee0$000eeeeeee",
"eeeee$<eewweeeee",
"eeeeeq&#9eweeeee",
"eeeewee:X5eweeee",
"eeeeeeee;Oeeeeee",
"eeeeeewe6oeeweee",
"eeeeewqe>&eeeeee",
"eeeeeee4@9eeeeee",
"eeeew,-%8eweeeee",
"eeeeq+>eeweeeeee",
"eeeeeeeeeeeeeeee",
"eeeeeeweeeeeeeee"
};
