/* XPM */
static char *ff5c9d1c9dc442dbe31c36471458290dbhWPFem1PzOaIlsk[] = {
/* columns rows colors chars-per-pixel */
"16 16 36 1 ",
"  c magenta",
". c magenta",
"X c magenta",
"o c magenta",
"O c magenta",
"+ c magenta",
"@ c magenta",
"# c magenta",
"$ c magenta",
"% c magenta",
"& c magenta",
"* c magenta",
"= c magenta",
"- c magenta",
"; c magenta",
": c magenta",
"> c magenta",
", c magenta",
"< c magenta",
"1 c magenta",
"2 c magenta",
"3 c magenta",
"4 c magenta",
"5 c magenta",
"6 c magenta",
"7 c magenta",
"8 c magenta",
"9 c magenta",
"0 c black",
"q c black",
"w c black",
"e c black",
"r c black",
"t c black",
"y c black",
"u c black",
/* pixels */
"uuuuuuuuuyyuuuuu",
"uuuuuuuuuuuuuuuu",
"uuuuuuyut37uuuuu",
"uuuuuyue$*7uyuuu",
"uuuuuue%6uuyuuuu",
"uuuuuy@5utyuuuuu",
"uuuyu;$uuuuuuuuu",
"uuuuq 7w50uuuuuu",
"uuyu2Ot=#+<uuuuu",
"uuyu,ouuuw.7uyuu",
"uuyu5+uuyu+,uyuu",
"uuuuqOwuuuX4uyuu",
"uuuyu>$89:&yuuuu",
"uuuuuu1@+-ruuuuu",
"uuuuuuuuuuuyuuuu",
"uuuuuuyuuyuuuuuu"
};
