/* XPM */
static char *a3e22d10f6ef414edc8fba7b7bc450af03dr37dEUwQTXzDe[] = {
/* columns rows colors chars-per-pixel */
"16 16 27 1 ",
"  c magenta",
". c magenta",
"X c magenta",
"o c magenta",
"O c magenta",
"+ c magenta",
"@ c magenta",
"# c magenta",
"$ c magenta",
"% c magenta",
"& c magenta",
"* c magenta",
"= c magenta",
"- c magenta",
"; c magenta",
": c magenta",
"> c magenta",
", c magenta",
"< c magenta",
"1 c magenta",
"2 c black",
"3 c black",
"4 c black",
"5 c black",
"6 c black",
"7 c black",
"8 c black",
/* pixels */
"8888887887888888",
"8888888888888888",
"8888711111258888",
"8888;X+OO+ &8888",
"8888644546o=8788",
"888888888<@88888",
"888888878%-87888",
"88888878,&878888",
"88888888#,888888",
"8888878-+8888888",
"7888888+-8788888",
"788878: 48888888",
"888886 $88888888",
"888883*>87888888",
"8888888888888888",
"8888887788888888"
};
