/* XPM */
static char *_b15b81c6fda42a8864652f59a5c4d55NfGlKlcLHYbPZm8H[] = {
/* columns rows colors chars-per-pixel */
"16 16 36 1 ",
"  c magenta",
". c magenta",
"X c magenta",
"o c magenta",
"O c magenta",
"+ c magenta",
"@ c magenta",
"# c magenta",
"$ c magenta",
"% c magenta",
"& c magenta",
"* c magenta",
"= c magenta",
"- c magenta",
"; c magenta",
": c magenta",
"> c magenta",
", c magenta",
"< c magenta",
"1 c magenta",
"2 c magenta",
"3 c magenta",
"4 c magenta",
"5 c magenta",
"6 c magenta",
"7 c magenta",
"8 c black",
"9 c black",
"0 c black",
"q c black",
"w c black",
"e c black",
"r c black",
"t c black",
"y c black",
"u c black",
/* pixels */
"uuuuuuuuyyuuuuuu",
"uuuuuuuyuuuuuuuu",
"uuuuuuuu74uuuuuu",
"uuuuuuq88+,uuuuu",
"uuuuuy#3u0Xtuuuu",
"uuuuu7Ouu7Oyuyuu",
"uuuuu0 6u*2uyuuu",
"uuuuuu<o$<uyuuuu",
"uuuuuuu+.-uuuuuu",
"uuuuuw#5u==uuuuu",
"uuuyu=;uuy%euuuu",
"uuuuu%4uuu&euuuu",
"uuuyu<+0r:,uuuuu",
"uuuuuu1>13uuuuuu",
"uuuuuuuuuuuyuuuu",
"uuuuuuyyuyuuuuuu"
};
