/* XPM */
static char *_abc3c92b0ba4d98cd1292c408705a7eygB362MzT7Yi0Xu8[] = {
/* columns rows colors chars-per-pixel */
"16 16 40 1 ",
"  c magenta",
". c magenta",
"X c magenta",
"o c magenta",
"O c magenta",
"+ c magenta",
"@ c magenta",
"# c magenta",
"$ c magenta",
"% c magenta",
"& c magenta",
"* c magenta",
"= c magenta",
"- c magenta",
"; c magenta",
": c magenta",
"> c magenta",
", c magenta",
"< c magenta",
"1 c magenta",
"2 c magenta",
"3 c magenta",
"4 c magenta",
"5 c magenta",
"6 c magenta",
"7 c magenta",
"8 c magenta",
"9 c magenta",
"0 c magenta",
"q c magenta",
"w c black",
"e c black",
"r c black",
"t c black",
"y c black",
"u c black",
"i c black1",
"p c black",
"a c black",
"s c black",
/* pixels */
"ssssssssssssssss",
"ssssssssssssssss",
"sssssassaassssss",
"ssssssssssssssss",
"sssas7$;=&ysasss",
"ssssw 3tw%+sssss",
"ssss--sssp 5sass",
"ssas#,sasy <sass",
"ssas4@uppr 6sass",
"sssss>.o70Xissss",
"sssssswqs%1sasss",
"ssssssss9%ssssss",
"sssssastoesassss",
"sssssss=:sasssss",
"ssssas2 ysasssss",
"ssssss0wssssssss"
};
