/* XPM */
static char *_32cac48258942a9f9473035cfb2ee27fn6Y5ikVNU6D4MQb[] = {
/* columns rows colors chars-per-pixel */
"32 32 15 1 ",
"  c #733E39",
". c #265C42",
"X c #A22633",
"o c #F77622",
"O c #E43B44",
"+ c #D77643",
"@ c #669409",
"# c #5E9524",
"$ c #3E8948",
"% c #63C74D",
"& c #81BB0B",
"* c #FEAE34",
"= c #A9E300",
"- c #E4A672",
"; c #EAD4AA",
/* pixels */
"#&=@&&&&#=@@@@&&&&&&@@=####&&&&#",
"@==#=##&==#&&&=&&=&&&#==&##=#@==",
"@#==&&#&@@&&@&@#====&&@@&&&&=##&",
"@&==&#&======&&#=&&======&&&===@",
"@&&&#@==@@@&@&&&&&&@&@@@==@@@#=@",
"@###&&&&&==&&&#&&#&&&==&&&&&&&=@",
"#&&&=&&=&&==&&@&&@&&==&&=&&=&&&#",
"#=#@=&&&#&&;+++;++;+&&&#&&&=@#=#",
"==@&=&&=+;+++++++++++;++=&&=&@==",
"=&@&#&+++++++;+++;+++++;++&#&@&=",
"#&@&&++++++++++++++++++++++#&@&#",
"#&==&----------------------##=&@",
"#&==------------------------#&&#",
"&&&=;;;;;;;;;;;;;;;;;;;;;;;;#&@#",
"&#&$$..$$$$$$%%..$..$%%%$$.$$#=#",
"&#&$OOOOOXXXXXXOOOOOXXXXXoXX@#&#",
"&#&**oooooooooooooooooooooo**&&=",
"&=&  ***********oooo******   &==",
"#=#    *******      ***      &@#",
"#=#                          &&#",
"@&=&$%%$%%..$$%%%$$$$$$$$.$$&=&@",
"#&@&---++$$$-++$$++-$$...+-+&@&#",
"=&@#------------------------&@&=",
"=&@#-----------------------+&@#=",
"#&##=++++++++++++++++++++++=@###",
"#&&&#&&=&&==&&@&&@&&==&&=&&==&#&",
"@#&&&#&&&==&&&#&&#&&&==&&&&&=&#&",
"@##@@#==@@@&@&&===&@&@@@==@==#&&",
"@#==&&#======&&=#&&======&&&==&@",
"@##=&&####&&&&=##@&@&&@@&&&&=##@",
"@==&=###==&&#&=&&=&&#####&&###=@",
"##@&@####=@@@#####@@@@=###&&===#"
};
