/* XPM */
static char *a676668bb16447f5a4d80729fd80af13dt2EqCQJdAixN8CD[] = {
/* columns rows colors chars-per-pixel */
"32 32 15 1 ",
"  c #345200",
". c #4D7900",
"X c #5C9400",
"o c #639E00",
"O c #669409",
"+ c #68A600",
"@ c #5E9524",
"# c #81BB0B",
"$ c #85D300",
"% c #88D900",
"& c #8EE200",
"* c #96F000",
"= c #9DFB00",
"- c #A9E300",
"; c #A5FF0A",
/* pixels */
"@#-O####@-OOOO######OO-@@@@####@",
"O--@-@@#--@###-##-###@--#@@-@O--",
"O@--##@#OO##O#O@----##OO####-@@#",
"O#--#@#------##@-##------###---O",
"O###@O--OOO         #OOO--OOO@-O",
"O@@@###    ====**;;=    ######-O",
"@###-# ====***;;==***;== ##-###@",
"@-@O- ==***=;;  ;;;;;;*;; #-O@-@",
"--O# ==**;;;;*oo; $*=;;=;* -#O--",
"-#O =**;  $&&*$$$o$**==;*;* #O#-",
"@# ;**; oo&*&&****&&$$$&*;* #O#@",
"@# **; o$%*;*&&&$**&; o&*$$= -#O",
"@ =;;&$**$& ;&; o$$&; o&*$$$ ##@",
"# =*&&**$&*$$&; o%*&; o&**&$= O@",
"# =&&%*&&%&&&&; $&*$$; o**&&& -@",
" ;=&&*&&;&*&&$&; o*$&&&$*&&&$ #@",
" =&**&&& &*&%*&&&&$%%$&&&&&$++ -",
" =$ *$$&o&&&&$;;&$$$&&&oo++o+. -",
" X.  *&$&&&%&$  ;&&&&&oo+$ .+. @",
" X... *$*&&&&&oo &&$Xoooo$ .X. @",
" X++X.$$&$&&&&$$ooXXX++o+$ .X #O",
"@ X+++++XX$X&$oXX++++ooo$ .X+ #@",
"- ..XX+++o $$XXXXX+XooXX+.X.. #-",
"-# ...oXX+.  ++++++oo+++++.. O@-",
"@#@   .......+++++XXXXX+..  O@@@",
"@###@#  ................  #--#@#",
"O@###@##                ####-#@#",
"O@@OO@--OOO#O##---#O#OOO--O--@##",
"O@--##@------##-@##------###--#O",
"O@@-##@@@@####-@@O#O##OO####-@@O",
"O--#-@@@--##@#-##-##@@@@@##@@@-O",
"@@O#O@@@@-OOO@@@@@OOOO-@@@##---@"
};
