/* XPM */
static char *_0f3bde2fce24919910bbf819b9a58e7x3H1JlG4ZEFxp8jF[] = {
/* columns rows colors chars-per-pixel */
"32 32 8 1 ",
"  c #252B43",
". c #669409",
"X c #5E9524",
"o c #81BB0B",
"O c #A9E300",
"+ c #8B9BB5",
"@ c #C0CCDC",
"# c #ECF0F1",
/* pixels */
"XoO.ooooXO....oooooo..OXXXXooooX",
".OOXOXXoOOXoooOooOoooXOOoXXOX.OO",
".XOOooX#################ooooOXXo",
".oOOoX@@@@@@@@@@@@@@@@@@#oooOOO.",
".oooX.@@@@@@@@@@@@@@@@@@#O...XO.",
".XXXoo@@@@@@@@@@@@@@@@@@#oooooO.",
"XoooOo@@@@@@@@@@@@@@@@@@#ooOoooX",
"XOX.Oo@@@ @@@@@@@@@@@@@@#ooO.XOX",
"OO.oOo@@@ @@@@@@@@@@@@@@#ooOo.OO",
"Oo.oXo@@@ @@@@@@@@@@@@@@#ooXo.oO",
"Xo.ooO@@@@@@@@@@@@@@@@@@#ooXo.oX",
"XoOOoo@@@@@@@@@@@@@@@@@@#ooXXOo.",
"XoOOoO+++++++++++++++++++.OoXooX",
"oooOoo###################oooXo.X",
"oXoO.O@@@@@@@@@@@@@@@@@@#o..OXOX",
"oXo..O@@@@@@@@@@@@@@@@@@#.X..XoX",
"oXo..O@@@ @@@@@@@@@@@@@@#.X..ooO",
"oOoO.O@@@ @@@@@@@@@@@@@@#o..OoOO",
"XOXooo@@@ @@@@@@@@@@@@@@#ooooo.X",
"XOXooO@@@ @@@@@@@@@@@@@@#.OooooX",
".oOooo@@@ @@@@@@@@@@@@@@#ooooOo.",
"Xo.ooO@@@@@@@@@@@@@@@@@@#oooo.oX",
"Oo.XXO@@@@@@@@@@@@@@@@@@#ooXo.oO",
"Oo.XOo@@@@@@@@@@@@@@@@@@#ooOo.XO",
"XoXXOo@@@@@@@@@@@@@@@@@@#ooO.XXX",
"XoooXo@@@@@@@@@@@@@@@@@@#ooOOoXo",
".XoooX@@@@@@@@@@@@@@@@@@#oooOoXo",
".XX..X@@@@@@@@@@@@@@@@@@#O.OOXoo",
".XOOooX                 OoooOOo.",
".XXOooX                 ooooOXX.",
".OOoOXXXOOooXoOooOooXXXXXooXXXO.",
"XX.o.XXXXO...XXXXX....OXXXooOOOX"
};
