/* XPM */
static char *f6dfacf7f66f4452c0890f38167a39984LwvEKqKAwvuRWym[] = {
/* columns rows colors chars-per-pixel */
"32 32 4 1 ",
"  c #669409",
". c #5E9524",
"X c #81BB0B",
"o c #A9E300",
/* pixels */
".Xo XXXX.o    XXXXXX  o....XXXX.",
" oo.o..Xoo.XXXoXXoXXX.ooX..o. oo",
" .ooXX.X  XX X .ooooXX  XXXXo..X",
" XooX.XooooooXX.oXXooooooXXXooo ",
" XXX. oo   X XXXXXX X   oo   .o ",
" ...XXXXXooXXX.XX.XXXooXXXXXXXo ",
".XXXoXXoXXooXX XX XXooXXoXXoXXX.",
".o. oXXX.XXX.ooXXooXXXX.XXXo .o.",
"oo XoXXoX.oXX.o..oXXXo.XoXXoX oo",
"oX X.XXX.X.oXXX..XXXo.X.XXX.X Xo",
".X XXoX  oXXo.XXXXooXXo  XX.X X.",
".XooXXXo  .XXXXXoooX .  oXX..oX ",
".XooXo XooXXooXXoXoo   oX oX.XX.",
"XXXoXXXXXoX.XXXoXX  .XoXXXXX.X .",
"X.Xo oXXXoXXXoooXXooXooXXX  o.o.",
"X.X  o  .ooXXooXoXXXXX..  .  .X.",
"X.X  o  ..XoooXXooXXXX..  .  XXo",
"XoXo oXXXoXXooXXXoXoXooXXX  oXoo",
".o.XXXXXXoXX.XXXXXX..XoXXXXXXX .",
".o.XXo XoooXooXoXXooooooX oXXXX.",
" XoXXXXo  .XXXXooXXX .  oXXXXoX ",
".X XXoX  oXXo.XXXX.oXXo  XXXX X.",
"oX ..oXX.X.XXXX..XXXo.X.XXX.X Xo",
"oX .oXXoX.oXX.o..o.XXo.XoXXoX .o",
".X..oXXX.XXX.ooXXoo.XXX.XXXo ...",
".XXX.XXoXXooXX XX XXooXXoXXooX.X",
" .XXX.XXXooXXX.XX.XXXooXXXXXoX.X",
" ..  .oo   X XXoooX X   oo oo.XX",
" .ooXX.ooooooXXo.XXooooooXXXooX ",
" ..oXX....XXXXo.. X XX  XXXXo.. ",
" ooXo...ooXX.XoXXoXX.....XX...o ",
".. X ....o   .....    o...XXooo."
};
