/* XPM */
static char *e4153883016b4772dc94e3219a276f2cjAviK3R5I0sEOxpK[] = {
/* columns rows colors chars-per-pixel */
"32 32 44 1 ",
"  c #2E1E22",
". c #323234",
"X c #760000",
"o c #5C2E00",
"O c #4D3B39",
"+ c #534721",
"@ c #444444",
"# c #565657",
"$ c #77584A",
"% c #705654",
"& c #6D6D6E",
"* c #767678",
"= c #AD0000",
"- c #FF2627",
"; c #964F00",
": c #8B5E4A",
"> c #9D704C",
", c #A77E5D",
"< c #8F7772",
"1 c #669409",
"2 c #5E9524",
"3 c #81BB0B",
"4 c #C79D00",
"5 c #E3B700",
"6 c #A9E300",
"7 c #FFD600",
"8 c #FFFC00",
"9 c #D7906E",
"0 c #1A5586",
"q c #286E9F",
"w c #288DCB",
"e c #858587",
"r c #9F8781",
"t c #928A8C",
"y c #979799",
"u c #B89D92",
"i c #B7A099",
"p c #B7B7BB",
"a c #EEBE93",
"s c #FFE1AF",
"d c gray85",
"f c #D9D9DD",
"g c gray95",
"h c white",
/* pixels */
"236133332OOOO133OOOO116222233332",
"1662622366O<%OOOi<%OOOOOO2262166",
"126633OOOOO%<<%i<%O<<%OO33336223",
"1366323O%<%O%i<<%<<i<<%OOO336661",
"133321OOO%<<<<i<<<i<%Oi<<%O11261",
"12223O%<<<ii<<<<<<<<<i<%OO333361",
"2333O%O%<<<<<<<i<<i<<<%<<%O63332",
"262OOO%<i<<<i<ii<X%i<<<%<<%O1262",
"66136O<i<<<i<%i<%=X<<Xi<%O<%O166",
"6313O%<<%<%<<X<<=-=%<X<i%%OO3136",
"2313O<<%<<X<%=<%---=<X%<%<O23132",
"236O<%%<<%a%ss%ssssa%a%<%%<O2631",
"236OO+%<%a+++sssss+++a9%9O%O2332",
"333O3+%<%ad fsssssf da9%9+OO2312",
"32361O+%>ag tssssst ga>%+O1O6262",
"32311O%%>ahoosssssooha>%%O211232",
"32311O%O+9a;;sssss;;a9+O%O211336",
"363616@**+9asssssssa9+**@3116366",
"26233@**pp+>9aaaaa9>+pp**@333312",
"26233@yfpfp+++++++++pfffp@633332",
"13633@*yyefhhfp*pfhhfefpy@333631",
"2313+:@##.0fhh545hhf0.&&&.333132",
"6312+::+..0qhww8wwhq0.&ur+323136",
"631*p++**.$0qww7wwq0$+u,,+363126",
"23*ppp**.@0$::eee::$0+,,,+361222",
"23*pfp**.@#qww&8&wwq#+:,$+366323",
"12*pf***+4#&&&8#8&###4+++*336323",
"122*p****+7788@@@7744+hhh*166233",
"1266*3266*$rur+*+:::+*hhh*336631",
"1226332222+:,,$22+++3**h*3336221",
"1663622266+,,,$33633222*23322261",
"22131222261112222211116222336662"
};
